<?xml version="1.0" encoding="UTF-8"?>
<!DOCTYPE svg PUBLIC "-//W3C//DTD SVG 1.1//EN" "http://www.w3.org/Graphics/SVG/1.1/DTD/svg11.dtd">
<!-- Creator: CorelDRAW 2020 (64-Bit) -->
<svg xmlns="http://www.w3.org/2000/svg" xml:space="preserve" width="11in" height="11in" version="1.1" style="shape-rendering:geometricPrecision; text-rendering:geometricPrecision; image-rendering:optimizeQuality; fill-rule:evenodd; clip-rule:evenodd"
viewBox="0 0 11000 11000"
 xmlns:xlink="http://www.w3.org/1999/xlink"
 xmlns:xodm="http://www.corel.com/coreldraw/odm/2003">
 <defs>
  <style type="text/css">
   <![CDATA[
    .fil0 {fill:#FEFEFE}
   ]]>
  </style>
 </defs>
 <g id="Layer_x0020_1">
  <metadata id="CorelCorpID_0Corel-Layer"/>
  <path class="fil0" d="M5042.57 2602.52c1325.28,0 2399.63,1074.35 2399.63,2399.64 0,586.17 -210.28,1123.15 -559.38,1539.89l185.78 185.78 1562.97 1562.97 -349.81 349.82 -1538.61 -1538.61 -215.17 -215.17c-408.56,322.49 -924.5,514.96 -1485.41,514.96 -1325.28,0 -2399.63,-1074.35 -2399.63,-2399.63 0,-1325.28 1074.35,-2399.64 2399.63,-2399.64zm0 420.81c1092.88,0 1978.83,885.95 1978.83,1978.83 0,1092.87 -885.95,1978.82 -1978.83,1978.82 -1092.87,0 -1978.83,-885.95 -1978.83,-1978.82 0,-1092.88 885.95,-1978.83 1978.83,-1978.83z"/>
 </g>
</svg>
