<?xml version="1.0" encoding="UTF-8"?>
<!DOCTYPE svg PUBLIC "-//W3C//DTD SVG 1.1//EN" "http://www.w3.org/Graphics/SVG/1.1/DTD/svg11.dtd">
<!-- Creator: CorelDRAW 2020 (64-Bit) -->
<svg xmlns="http://www.w3.org/2000/svg" xml:space="preserve" width="11in" height="11in" version="1.1" style="shape-rendering:geometricPrecision; text-rendering:geometricPrecision; image-rendering:optimizeQuality; fill-rule:evenodd; clip-rule:evenodd"
viewBox="0 0 11000 11000"
 xmlns:xlink="http://www.w3.org/1999/xlink"
 xmlns:xodm="http://www.corel.com/coreldraw/odm/2003">
 <defs>
  <style type="text/css">
   <![CDATA[
    .fil0 {fill:#00AFEF}
   ]]>
  </style>
 </defs>
 <g id="Layer_x0020_1">
  <metadata id="CorelCorpID_0Corel-Layer"/>
  <path class="fil0" d="M5608.4 2374.31c1817.95,0 3291.69,1473.74 3291.69,3291.69 0,1817.95 -1473.74,3291.69 -3291.69,3291.69 -1817.95,0 -3291.69,-1473.74 -3291.69,-3291.69 0,-1817.95 1473.74,-3291.69 3291.69,-3291.69zm0 201.53c1706.65,0 3090.16,1383.51 3090.16,3090.16 0,1706.65 -1383.51,3090.16 -3090.16,3090.16 -1706.65,0 -3090.16,-1383.51 -3090.16,-3090.16 0,-1706.65 1383.51,-3090.16 3090.16,-3090.16z"/>
  <path class="fil0" d="M5608.4 5666c1218.37,0 2282.06,661.98 2851.21,1645.84 -569.16,983.86 -1632.85,1645.85 -2851.21,1645.85 -1218.37,0 -2282.06,-661.98 -2851.21,-1645.85 569.16,-983.86 1632.85,-1645.84 2851.21,-1645.84zm0 138.36c1115.94,0 2090.22,606.33 2611.53,1507.48 -521.31,901.15 -1495.58,1507.49 -2611.53,1507.49 -1115.94,0 -2090.22,-606.33 -2611.53,-1507.49 521.31,-901.15 1495.58,-1507.48 2611.53,-1507.48z"/>
  <path class="fil0" d="M5608.4 3478.7c630.72,0 1142.02,511.3 1142.02,1142.02 0,630.72 -511.3,1142.02 -1142.02,1142.02 -630.72,0 -1142.02,-511.3 -1142.02,-1142.02 0,-630.72 511.3,-1142.02 1142.02,-1142.02zm0 167.94c537.97,0 974.07,436.11 974.07,974.07 0,537.97 -436.11,974.07 -974.07,974.07 -537.97,0 -974.07,-436.11 -974.07,-974.07 0,-537.97 436.11,-974.07 974.07,-974.07z"/>
 </g>
</svg>
