<?xml version="1.0" encoding="UTF-8"?>
<!DOCTYPE svg PUBLIC "-//W3C//DTD SVG 1.1//EN" "http://www.w3.org/Graphics/SVG/1.1/DTD/svg11.dtd">
<!-- Creator: CorelDRAW 2020 (64-Bit) -->
<svg xmlns="http://www.w3.org/2000/svg" xml:space="preserve" width="11in" height="11in" version="1.1" style="shape-rendering:geometricPrecision; text-rendering:geometricPrecision; image-rendering:optimizeQuality; fill-rule:evenodd; clip-rule:evenodd"
viewBox="0 0 11000 11000"
 xmlns:xlink="http://www.w3.org/1999/xlink"
 xmlns:xodm="http://www.corel.com/coreldraw/odm/2003">
 <defs>
  <style type="text/css">
   <![CDATA[
    .fil0 {fill:#FEFEFE}
   ]]>
  </style>
 </defs>
 <g id="Layer_x0020_1">
  <metadata id="CorelCorpID_0Corel-Layer"/>
  <path class="fil0" d="M2386.18 1803.65l1947.99 0 0 1948 -1947.99 0 0 -1948zm251.62 251.63l1444.75 0 0 1444.75 -1444.75 0 0 -1444.75z"/>
  <path class="fil0" d="M2386.18 4080.92l1947.99 0 0 1947.99 -1947.99 0 0 -1947.99zm251.62 251.62l1444.75 0 0 1444.75 -1444.75 0 0 -1444.75z"/>
  <path class="fil0" d="M2386.18 6357.73l1947.99 0 0 1947.99 -1947.99 0 0 -1947.99zm251.62 251.62l1444.75 0 0 1444.75 -1444.75 0 0 -1444.75z"/>
  <path class="fil0" d="M4662.08 1803.65l1947.99 0 0 1948 -1947.99 0 0 -1948zm251.62 251.63l1444.75 0 0 1444.75 -1444.75 0 0 -1444.75z"/>
  <path class="fil0" d="M4662.08 4080.92l1947.99 0 0 1947.99 -1947.99 0 0 -1947.99zm251.62 251.62l1444.75 0 0 1444.75 -1444.75 0 0 -1444.75z"/>
  <path class="fil0" d="M4662.08 6357.73l1947.99 0 0 1947.99 -1947.99 0 0 -1947.99zm251.62 251.62l1444.75 0 0 1444.75 -1444.75 0 0 -1444.75z"/>
  <path class="fil0" d="M6939.31 1803.65l1947.99 0 0 1948 -1947.99 0 0 -1948zm251.62 251.63l1444.75 0 0 1444.75 -1444.75 0 0 -1444.75z"/>
  <path class="fil0" d="M6939.31 4080.92l1947.99 0 0 1947.99 -1947.99 0 0 -1947.99zm251.62 251.62l1444.75 0 0 1444.75 -1444.75 0 0 -1444.75z"/>
  <path class="fil0" d="M6939.31 6357.73l1947.99 0 0 1947.99 -1947.99 0 0 -1947.99zm251.62 251.62l1444.75 0 0 1444.75 -1444.75 0 0 -1444.75z"/>
 </g>
</svg>
