<?xml version="1.0" encoding="UTF-8"?>
<!DOCTYPE svg PUBLIC "-//W3C//DTD SVG 1.1//EN" "http://www.w3.org/Graphics/SVG/1.1/DTD/svg11.dtd">
<!-- Creator: CorelDRAW 2020 (64-Bit) -->
<svg xmlns="http://www.w3.org/2000/svg" xml:space="preserve" width="8.5in" height="11in" version="1.1" style="shape-rendering:geometricPrecision; text-rendering:geometricPrecision; image-rendering:optimizeQuality; fill-rule:evenodd; clip-rule:evenodd"
viewBox="0 0 8500 11000"
 xmlns:xlink="http://www.w3.org/1999/xlink"
 xmlns:xodm="http://www.corel.com/coreldraw/odm/2003">
 <defs>
  <style type="text/css">
   <![CDATA[
    .fil0 {fill:#FEFEFE}
   ]]>
  </style>
 </defs>
 <g id="Layer_x0020_1">
  <metadata id="CorelCorpID_0Corel-Layer"/>
  <path id="wide-screen.cdr" class="fil0" d="M2286.66 3560.17l4254.48 0c19.78,0 35.95,20.67 35.95,45.93l0 2943.93c0,25.27 -16.17,45.94 -35.95,45.94l-1953.63 0c-27.96,-3.59 -64.99,15.28 -64.99,-45.94 0,-37.87 -3.17,-75.46 -2.83,-112.91 1.07,-115.89 -8.46,-151.3 54.8,-149.56l1742.29 0 0 -2419 -3805.76 0 0 373.19c-2.6,47.49 -51.07,41.04 -130.96,40.17 -77.91,-0.85 -123.28,6.2 -129.35,-45.38l0 -630.44c0,-25.27 16.18,-45.93 35.95,-45.93z"/>
  <g id="_2693650440592">
   <path class="fil0" d="M2250.7 6042.06c276.14,0 500,223.86 500,500l-500 0 0 -500z"/>
   <path class="fil0" d="M2250.7 5292.06c690.35,0 1250,559.65 1250,1250l-444.44 0c0,-444.89 -360.66,-805.56 -805.56,-805.56l0 -444.44z"/>
   <path class="fil0" d="M2250.7 4509.34c1122.64,0 2032.72,910.08 2032.72,2032.72l-449.39 0c0,-874.45 -708.88,-1583.33 -1583.33,-1583.33l0 -449.39z"/>
  </g>
 </g>
</svg>
