<?xml version="1.0" encoding="UTF-8"?>
<!DOCTYPE svg PUBLIC "-//W3C//DTD SVG 1.1//EN" "http://www.w3.org/Graphics/SVG/1.1/DTD/svg11.dtd">
<!-- Creator: CorelDRAW 2020 (64-Bit) -->
<svg xmlns="http://www.w3.org/2000/svg" xml:space="preserve" width="8.5in" height="11in" version="1.1" style="shape-rendering:geometricPrecision; text-rendering:geometricPrecision; image-rendering:optimizeQuality; fill-rule:evenodd; clip-rule:evenodd"
viewBox="0 0 8500 11000"
 xmlns:xlink="http://www.w3.org/1999/xlink"
 xmlns:xodm="http://www.corel.com/coreldraw/odm/2003">
 <defs>
  <style type="text/css">
   <![CDATA[
    .fil0 {fill:#FEFEFE}
   ]]>
  </style>
 </defs>
 <g id="Layer_x0020_1">
  <metadata id="CorelCorpID_0Corel-Layer"/>
  <path class="fil0" d="M1536.57 5158.35l288.16 -499.1 -0.01 -0 367.84 -637.11c1131.5,653.29 1445.69,448.13 1445.7,-834.67l576.3 0 735.67 0c0,1306.55 334.76,1476.06 1445.69,834.67l288.15 499.09 0 0 367.83 637.11c-1131.51,653.27 -1110.93,1027.94 0,1669.34l-0.01 0 0.01 0 -288.15 499.09 -367.84 637.11c-1131.5,-653.28 -1445.69,-448.11 -1445.69,834.68l-0 -0 0 0 -576.3 0 0 0.01 -735.67 -0.01c0.01,-1306.55 -334.76,-1476.06 -1445.69,-834.68l0 -0 -0.01 0 -288.15 -499.09 -0.01 0 -367.83 -637.11c1131.51,-653.27 1110.93,-1027.94 0,-1669.34zm2757.67 -200.79c571.87,0 1035.47,463.59 1035.47,1035.47 0,571.87 -463.59,1035.47 -1035.47,1035.47 -571.87,0 -1035.47,-463.59 -1035.47,-1035.47 0,-571.87 463.59,-1035.47 1035.47,-1035.47z"/>
 </g>
</svg>
