<?xml version="1.0" encoding="UTF-8"?>
<!DOCTYPE svg PUBLIC "-//W3C//DTD SVG 1.1//EN" "http://www.w3.org/Graphics/SVG/1.1/DTD/svg11.dtd">
<!-- Creator: CorelDRAW 2020 (64-Bit) -->
<svg xmlns="http://www.w3.org/2000/svg" xml:space="preserve" width="8.5in" height="11in" version="1.1" style="shape-rendering:geometricPrecision; text-rendering:geometricPrecision; image-rendering:optimizeQuality; fill-rule:evenodd; clip-rule:evenodd"
viewBox="0 0 8500 11000"
 xmlns:xlink="http://www.w3.org/1999/xlink"
 xmlns:xodm="http://www.corel.com/coreldraw/odm/2003">
 <defs>
  <style type="text/css">
   <![CDATA[
    .fil0 {fill:#FEFEFE}
   ]]>
  </style>
 </defs>
 <g id="Layer_x0020_1">
  <metadata id="CorelCorpID_0Corel-Layer"/>
  <path class="fil0" d="M1016.38 3131.92l6254.45 0c121,0 220,99 220,220l0 4133.75c0,121 -99,220 -220,220l-6254.45 0c-121,0 -220,-99 -220,-220l0 -4133.75c0,-121 99,-220 220,-220zm326.37 361.11l5601.71 0c101.89,0 185.26,83.37 185.26,185.26l0 3481c0,101.89 -83.37,185.26 -185.26,185.26l-5601.71 0c-101.89,0 -185.26,-83.37 -185.26,-185.26l0 -3481c0,-101.89 83.37,-185.26 185.26,-185.26z"/>
  <rect class="fil0" x="4331.1" y="5474.2" width="2513.89" height="1621.22" rx="82.61" ry="77.98"/>
 </g>
</svg>
