<?xml version="1.0" encoding="UTF-8"?>
<!DOCTYPE svg PUBLIC "-//W3C//DTD SVG 1.1//EN" "http://www.w3.org/Graphics/SVG/1.1/DTD/svg11.dtd">
<!-- Creator: CorelDRAW 2020 (64-Bit) -->
<svg xmlns="http://www.w3.org/2000/svg" xml:space="preserve" width="8.5in" height="11in" version="1.1" style="shape-rendering:geometricPrecision; text-rendering:geometricPrecision; image-rendering:optimizeQuality; fill-rule:evenodd; clip-rule:evenodd"
viewBox="0 0 8500 11000"
 xmlns:xlink="http://www.w3.org/1999/xlink"
 xmlns:xodm="http://www.corel.com/coreldraw/odm/2003">
 <defs>
  <style type="text/css">
   <![CDATA[
    .fil0 {fill:#BDBFC1}
   ]]>
  </style>
 </defs>
 <g id="Layer_x0020_1">
  <metadata id="CorelCorpID_0Corel-Layer"/>
  <path class="fil0" d="M2023.57 3611.08l3885.32 0c254.48,0 462.7,208.21 462.7,462.7l0 2755.16c0,254.48 -208.22,462.7 -462.7,462.7l-3885.32 0c-254.48,0 -462.7,-208.22 -462.7,-462.7l0 -2755.16c0,-254.48 208.21,-462.7 462.7,-462.7zm3512.83 1728.83l-579.55 0 0 -386.36c0,-112.54 -6.09,-182.4 -18.29,-210.54 -12.19,-27.67 -39.39,-41.73 -81.12,-41.73 -46.89,0 -76.89,16.88 -89.55,50.64 -12.67,34.23 -19.23,107.37 -19.23,219.91l0 1032.5c0,108.31 6.56,178.65 19.23,211.94 12.66,32.82 41.26,49.24 85.33,49.24 42.67,0 70.8,-16.41 83.93,-49.7 13.13,-32.82 19.69,-110.66 19.69,-233.04l0 -279.93 579.55 0 0 86.74c0,230.69 -16.41,394.33 -48.76,490.46 -32.35,96.59 -104.56,181 -215.69,253.67 -111.59,72.68 -248.51,108.78 -411.69,108.78 -169.27,0 -309,-30.48 -419.19,-91.91 -109.72,-61.42 -182.87,-146.29 -218.5,-255.07 -35.63,-108.78 -53.45,-271.96 -53.45,-489.99l0 -649.88c0,-160.37 5.63,-280.4 16.41,-360.58 11.25,-80.18 43.6,-157.55 98.47,-231.63 54.39,-74.08 129.88,-132.7 226.47,-175.36 96.59,-42.67 207.72,-63.77 333.38,-63.77 170.21,0 310.88,32.82 422,98.93 110.66,65.64 183.33,147.7 218.5,246.17 34.69,98.47 52.04,251.33 52.04,459.04l0 211.47zm-1850.01 0l-579.55 0 0 -386.36c0,-112.54 -6.09,-182.4 -18.29,-210.54 -12.19,-27.67 -39.39,-41.73 -81.12,-41.73 -46.89,0 -76.89,16.88 -89.55,50.64 -12.66,34.23 -19.23,107.37 -19.23,219.91l0 1032.5c0,108.31 6.57,178.65 19.23,211.94 12.66,32.82 41.26,49.24 85.33,49.24 42.67,0 70.8,-16.41 83.93,-49.7 13.13,-32.82 19.69,-110.66 19.69,-233.04l0 -279.93 579.55 0 0 86.74c0,230.69 -16.41,394.33 -48.76,490.46 -32.35,96.59 -104.56,181 -215.69,253.67 -111.59,72.68 -248.51,108.78 -411.69,108.78 -169.27,0 -309,-30.48 -419.19,-91.91 -109.72,-61.42 -182.87,-146.29 -218.5,-255.07 -35.63,-108.78 -53.45,-271.96 -53.45,-489.99l0 -649.88c0,-160.37 5.63,-280.4 16.41,-360.58 11.25,-80.18 43.6,-157.55 98.47,-231.63 54.39,-74.08 129.88,-132.7 226.47,-175.36 96.59,-42.67 207.72,-63.77 333.38,-63.77 170.21,0 310.88,32.82 422,98.93 110.66,65.64 183.33,147.7 218.5,246.17 34.69,98.47 52.04,251.33 52.04,459.04l0 211.47z"/>
 </g>
</svg>
