<?xml version="1.0" encoding="UTF-8"?>
<!DOCTYPE svg PUBLIC "-//W3C//DTD SVG 1.1//EN" "http://www.w3.org/Graphics/SVG/1.1/DTD/svg11.dtd">
<!-- Creator: CorelDRAW 2020 (64-Bit) -->
<svg xmlns="http://www.w3.org/2000/svg" xml:space="preserve" width="8.5in" height="11in" version="1.1" style="shape-rendering:geometricPrecision; text-rendering:geometricPrecision; image-rendering:optimizeQuality; fill-rule:evenodd; clip-rule:evenodd"
viewBox="0 0 8500 11000"
 xmlns:xlink="http://www.w3.org/1999/xlink"
 xmlns:xodm="http://www.corel.com/coreldraw/odm/2003">
 <defs>
  <style type="text/css">
   <![CDATA[
    .fil0 {fill:#FEFEFE}
   ]]>
  </style>
 </defs>
 <g id="Layer_x0020_1">
  <metadata id="CorelCorpID_0Corel-Layer"/>
  <rect class="fil0" x="1218.8" y="4726.07" width="2760.32" height="1496.25"/>
  <polygon class="fil0" points="3979.13,3242.73 3979.13,3242.73 3979.13,7705.67 3979.13,7705.67 2250.7,6222.32 2250.7,4726.07 "/>
  <path class="fil0" d="M4211.3 3242.73c1232.41,0 2231.47,999.06 2231.47,2231.47 0,1232.41 -999.06,2231.47 -2231.47,2231.47l0 -503.04c954.59,0 1728.43,-773.84 1728.43,-1728.43 0,-954.59 -773.84,-1728.43 -1728.43,-1728.43l0 -503.04z"/>
  <path class="fil0" d="M4211.3 4274.63c662.51,0 1199.57,537.07 1199.57,1199.57 0,662.51 -537.07,1199.57 -1199.57,1199.57l0 -2399.15z"/>
 </g>
</svg>
